HIERARCHY
ROOT SpineBase
{
  OFFSET 0.000000 0.000000 0.000000
  CHANNELS 6 Xposition Yposition Zposition Zrotation Xrotation Yrotation
  JOINT SpineMid
  {
    OFFSET -0.000000 29.588966 0.000000
    CHANNELS 3 Zrotation Xrotation Yrotation
    JOINT SpineShoulder
    {
      OFFSET -0.096655 22.062787 -0.823154
      CHANNELS 3 Zrotation Xrotation Yrotation
      JOINT Neck
      {
        OFFSET -0.019371 7.326075 -0.598203
        CHANNELS 3 Zrotation Xrotation Yrotation
        JOINT Head
        {
          OFFSET -3.838590 13.524365 0.185637
          CHANNELS 3 Zrotation Xrotation Yrotation
          End Site
          {
            OFFSET 0 0 0
          }
        }
      }
      JOINT ShoulderLeft
      {
        OFFSET -16.216306 -4.948053 4.774980
        CHANNELS 3 Zrotation Xrotation Yrotation
        JOINT ElbowLeft
        {
          OFFSET -1.280719 -27.788746 3.931887
          CHANNELS 3 Zrotation Xrotation Yrotation
          JOINT WristLeft
          {
            OFFSET 0.304003 -21.813419 -6.095387
            CHANNELS 3 Zrotation Xrotation Yrotation
            JOINT HandLeft
            {
              OFFSET 0.280545 -0.168028 -1.053374
              CHANNELS 3 Zrotation Xrotation Yrotation
              JOINT HandTipLeft
              {
                OFFSET 1.302596 -7.270339 -1.729881
                CHANNELS 3 Zrotation Xrotation Yrotation
                End Site
                {
                  OFFSET 0 0 0
                }
              }
              JOINT ThumbLeft
              {
                OFFSET 3.024631 1.023546 -4.117925
                CHANNELS 3 Zrotation Xrotation Yrotation
                End Site
                {
                  OFFSET 0 0 0
                }
              }
            }
          }
        }
      }
      JOINT ShoulderRight
      {
        OFFSET 14.548095 -1.948863 -6.640371
        CHANNELS 3 Zrotation Xrotation Yrotation
        JOINT ElbowRight
        {
          OFFSET 7.750539 -25.705008 1.368882
          CHANNELS 3 Zrotation Xrotation Yrotation
          JOINT WristRight
          {
            OFFSET -0.737478 -21.856076 -5.906050
            CHANNELS 3 Zrotation Xrotation Yrotation
            JOINT HandRight
            {
              OFFSET -1.513186 -5.756632 0.889437
              CHANNELS 3 Zrotation Xrotation Yrotation
              JOINT HandTipRight
              {
                OFFSET -1.005432 -4.646027 0.774743
                CHANNELS 3 Zrotation Xrotation Yrotation
                End Site
                {
                  OFFSET 0 0 0
                }
              }
              JOINT ThumbRight
              {
                OFFSET -3.260945 2.040270 -1.793284
                CHANNELS 3 Zrotation Xrotation Yrotation
                End Site
                {
                  OFFSET 0 0 0
                }
              }
            }
          }
        }
      }
    }
  }
  JOINT HipLeft
  {
    OFFSET -6.722515 0.527879 -1.581263
    CHANNELS 3 Zrotation Xrotation Yrotation
    JOINT KneeLeft
    {
      OFFSET 3.956706 -28.459357 5.036960
      CHANNELS 3 Zrotation Xrotation Yrotation
      JOINT AnkleLeft
      {
        OFFSET 3.191345 -32.396757 5.475491
        CHANNELS 3 Zrotation Xrotation Yrotation
        JOINT FootLeft
        {
          OFFSET 2.805450 -7.609941 -5.334200
          CHANNELS 3 Zrotation Xrotation Yrotation
          End Site
          {
            OFFSET 0 0 0
          }
        }
      }
    }
  }
  JOINT HipRight
  {
    OFFSET 7.295621 1.307703 -5.214329
    CHANNELS 3 Zrotation Xrotation Yrotation
    JOINT KneeRight
    {
      OFFSET 5.331647 -27.004974 2.854699
      CHANNELS 3 Zrotation Xrotation Yrotation
      JOINT AnkleRight
      {
        OFFSET 1.385832 -34.191213 6.597427
        CHANNELS 3 Zrotation Xrotation Yrotation
        JOINT FootRight
        {
          OFFSET -1.174682 -7.934134 -5.017942
          CHANNELS 3 Zrotation Xrotation Yrotation
          End Site
          {
            OFFSET 0 0 0
          }
        }
      }
    }
  }
}
MOTION
Frames: 13
Frame Time: 0.033333
-29.819862 68.510839 344.325731 0.000000 0.000000 14.529609 -0.000000 0.000000 -14.529609 -0.000000 0.000000 0.000000 -0.000000 0.000000 0.000000 0.000000 0.000000 0.000000 -0.000000 0.000000 0.000000 -0.000000 0.000000 0.000000 -0.000000 0.000000 0.000000 -0.000000 0.000000 0.000000 0.000000 0.000000 0.000000 0.000000 0.000000 0.000000 -0.000000 0.000000 0.000000 -0.000000 0.000000 0.000000 -0.000000 0.000000 0.000000 -0.000000 0.000000 0.000000 0.000000 0.000000 0.000000 0.000000 0.000000 0.000000 -0.000000 0.000000 -14.529609 -0.000000 0.000000 0.000000 -0.000000 0.000000 0.000000 0.000000 0.000000 0.000000 -0.000000 0.000000 -14.529609 -0.000000 0.000000 0.000000 -0.000000 0.000000 0.000000 0.000000 0.000000 0.000000
-29.933082 68.466752 344.308144 0.194122 0.006909 14.630337 -0.189573 0.042347 -14.630279 -0.000000 0.000000 0.000000 -0.000000 0.000000 0.000000 0.000000 0.000000 0.000000 -0.000000 0.000000 0.000000 -0.000000 0.000000 0.000000 -4.182362 -15.183354 1.674833 5.683896 16.028857 -3.107082 0.000000 0.000000 0.000000 0.000000 0.000000 0.000000 -0.000000 0.000000 0.000000 -0.000000 0.000000 0.000000 -2.510155 5.024775 -1.600927 5.287878 -4.804231 2.477141 0.000000 0.000000 0.000000 0.000000 0.000000 0.000000 -0.189573 0.042347 -14.630279 -0.000000 0.000000 0.000000 0.946161 0.863108 -0.349251 0.000000 0.000000 0.000000 -0.189573 0.042347 -14.630279 -0.000000 0.000000 0.000000 0.841639 1.448267 -0.752170 0.000000 0.000000 0.000000
-30.048448 68.429294 344.288224 0.371112 0.023092 14.752172 -0.364759 0.072169 -14.752017 -0.000000 0.000000 0.000000 -0.000000 0.000000 0.000000 0.000000 0.000000 0.000000 -0.000000 0.000000 0.000000 -0.000000 0.000000 0.000000 -7.105375 -25.838724 1.695334 10.737091 27.094217 -6.250086 0.000000 0.000000 0.000000 0.000000 0.000000 0.000000 1.019396 0.307294 0.143844 -0.700627 -1.191408 -0.202311 -4.892916 10.223230 -2.666868 9.821346 -8.296466 4.992062 0.000000 0.000000 0.000000 0.000000 0.000000 0.000000 -0.364759 0.072169 -14.752017 -0.000000 0.000000 0.000000 1.750714 1.629386 -0.641422 0.000000 0.000000 0.000000 -0.364759 0.072169 -14.752017 -0.000000 0.000000 0.000000 1.458170 2.562261 -1.318079 0.000000 0.000000 0.000000
-30.165961 68.398465 344.265971 0.531124 0.048530 14.895243 -0.525752 0.089628 -14.895056 -0.000000 0.000000 0.000000 0.979420 0.081391 0.008940 0.000000 0.000000 0.000000 -0.000000 0.000000 0.000000 0.921706 -0.178142 -0.258693 -10.123598 -33.040723 1.136696 15.107999 34.611972 -9.072220 0.000000 0.000000 0.000000 0.000000 0.000000 0.000000 1.438647 0.453883 0.207033 -1.051025 -1.635369 -0.277874 -6.607184 14.082005 -3.470936 13.514615 -10.563449 7.239821 0.000000 0.000000 0.000000 0.000000 0.000000 0.000000 -0.525752 0.089628 -14.895056 -0.000000 0.000000 0.000000 2.414735 2.303392 -0.873038 0.000000 0.000000 0.000000 0.433367 -0.063201 -14.773815 -0.966383 -0.096799 -0.122279 1.846913 3.360522 -1.692558 0.000000 0.000000 0.000000
-30.285619 68.374263 344.241385 0.674292 0.083218 15.059675 -0.672756 0.094840 -15.059608 -0.000000 0.000000 0.000000 1.286464 0.194456 0.035237 0.000000 0.000000 0.000000 -0.000000 0.000000 0.000000 1.108294 -0.179035 -0.310560 -12.181475 -38.206668 -0.246405 18.831344 39.810586 -11.445969 0.000000 0.000000 0.000000 0.000000 0.000000 0.000000 1.793884 0.594740 0.264379 -1.397005 -1.977083 -0.337101 -7.888341 17.098052 -4.041049 16.295365 -11.735881 8.998773 0.000000 0.000000 0.000000 0.000000 0.000000 0.000000 -0.672756 0.094840 -15.059608 -0.000000 0.000000 0.000000 2.939429 2.889292 -1.041328 0.000000 0.000000 0.000000 0.585038 -0.071181 -14.894368 -1.258210 -0.162848 -0.167288 2.006416 3.856812 -1.872690 0.000000 0.000000 0.000000
-30.407424 68.356690 344.214466 0.800732 0.127159 15.245597 -0.805989 0.087879 -15.245868 -0.000000 0.000000 0.000000 1.583673 0.350577 0.072631 0.000000 0.000000 0.000000 -0.000000 0.000000 0.000000 1.234694 -0.150391 -0.345577 -14.030612 -41.959978 -2.078999 21.961113 43.475703 -13.333773 0.000000 0.000000 0.000000 0.000000 0.000000 0.000000 2.082763 0.729146 0.315901 -1.735742 -2.215932 -0.380155 -8.766853 19.305911 -4.444084 18.121265 -11.938421 10.127027 0.000000 0.000000 0.000000 0.000000 0.000000 0.000000 -0.805989 0.087879 -15.245868 -0.000000 0.000000 0.000000 3.325979 3.390694 -1.144090 0.000000 0.000000 0.000000 0.736630 -0.071697 -15.035119 -1.531214 -0.246036 -0.214254 1.935808 4.059170 -1.857111 0.000000 0.000000 0.000000
-30.528004 68.354061 344.188624 0.906344 0.192237 15.491005 -0.924760 0.056833 -15.492067 -0.000000 0.000000 0.000000 2.050634 0.506340 0.105957 0.000000 0.000000 0.000000 -0.000000 0.000000 0.000000 1.295797 -0.096942 -0.362386 -17.236216 -47.389831 -5.485683 28.229929 47.991842 -17.892164 0.000000 0.000000 0.000000 0.000000 0.000000 0.000000 2.220047 0.921769 0.376278 -2.088636 -2.348116 -0.399182 -9.071726 20.839453 -4.803747 18.793238 -9.730837 10.117892 0.000000 0.000000 0.000000 0.000000 0.000000 0.000000 -0.073388 0.110979 -15.311890 -0.806861 -0.277029 -0.183374 3.448360 3.760554 -1.106478 0.000000 0.000000 0.000000 0.985594 -0.018413 -15.210312 -1.863210 -0.428516 -0.289363 1.581528 4.142257 -1.636838 0.000000 0.000000 0.000000
-30.649529 68.350470 344.159155 0.999414 0.251569 15.660907 -0.193568 0.338477 -15.636296 -0.075264 0.105969 0.024295 1.749502 0.153493 0.141086 0.000000 0.000000 0.000000 -0.646937 -0.630544 -0.058027 1.276111 -0.022354 -0.356628 -18.451103 -48.342006 -7.870526 30.833708 50.130132 -19.020417 0.000000 0.000000 0.000000 0.000000 0.000000 0.000000 1.717010 0.392143 0.379323 -2.473441 -2.286562 -0.387836 -8.994124 21.253157 -4.996805 18.980713 -6.990196 9.598464 0.000000 0.000000 0.000000 0.000000 0.000000 0.000000 -0.115776 0.089582 -15.468400 -0.864793 -0.303624 -0.197680 3.374365 3.860115 -1.020874 0.000000 0.000000 0.000000 1.106240 0.019366 -15.334674 -2.062635 -0.556944 -0.339081 1.951270 -0.611277 -1.139969 0.000000 0.000000 0.000000
-30.783110 68.347543 344.116724 1.076419 0.318449 15.878838 -0.204126 0.347493 -15.852728 -0.079399 0.106964 0.026519 1.877696 0.404905 0.220861 0.000000 0.000000 0.000000 -0.026046 -0.004003 0.004329 0.538418 -0.602599 -0.393282 -18.497571 -47.698374 -9.074203 29.113590 49.520982 -16.800858 0.000000 0.000000 0.000000 0.000000 0.000000 0.000000 1.828971 0.373008 0.400880 -2.872654 -2.121400 -0.367135 -8.836125 21.445354 -5.165107 18.831272 -6.974685 9.605813 0.000000 0.000000 0.000000 0.000000 0.000000 0.000000 -0.124827 0.027769 -15.671063 -0.949894 -0.307508 -0.213570 3.796498 4.449750 -1.124052 0.000000 0.000000 0.000000 1.141283 -0.084854 -15.540406 -2.200633 -0.535979 -0.349925 -0.399953 4.071792 -0.328378 0.000000 0.000000 0.000000
-30.927174 68.347207 344.064338 1.125145 0.400857 16.142261 -0.218007 0.351021 -16.115821 -0.082417 0.108441 0.027497 1.937792 0.674879 0.311353 0.000000 0.000000 0.000000 0.030645 0.164187 0.001636 0.344864 -0.735532 -0.362170 -18.069233 -45.779958 -10.881597 23.502478 47.865821 -10.539434 0.000000 0.000000 0.000000 0.000000 0.000000 0.000000 1.914078 0.345325 0.422671 -3.121411 -1.961854 -0.365905 -8.603914 20.095821 -5.010464 19.105095 -4.800100 8.909246 0.000000 0.000000 0.000000 0.000000 0.000000 0.000000 -0.084409 -0.110488 -15.917440 -0.357008 -0.758979 -0.150276 3.055391 5.290677 -1.088475 0.000000 0.000000 0.000000 1.135633 -0.224751 -15.802324 -2.281449 -0.487126 -0.348290 -0.827894 2.907728 0.112110 0.000000 0.000000 0.000000
-31.080588 68.343373 344.014861 1.154541 0.486216 16.370651 -0.226499 0.349227 -16.344313 -0.084455 0.109428 0.028017 1.879882 0.901400 0.392874 0.000000 0.000000 0.000000 0.101438 0.353072 -0.000886 0.163108 -0.907559 -0.335323 -15.534859 -39.732662 -12.598181 13.973424 41.660595 -0.128331 0.000000 0.000000 0.000000 0.000000 0.000000 0.000000 1.926944 0.358269 0.451798 -3.144712 -1.957249 -0.404086 -8.534168 19.121138 -4.850306 18.197896 -2.305359 7.700487 0.000000 0.000000 0.000000 0.000000 0.000000 0.000000 -0.011913 -0.261575 -16.125412 -0.325707 -0.687953 -0.136732 4.791336 1.873061 -3.583547 0.000000 0.000000 0.000000 1.141978 -0.421579 -16.036427 -2.152119 -1.190473 -0.323194 -2.218069 6.989721 0.453076 0.000000 0.000000 0.000000
-31.236637 68.331220 343.961929 1.167970 0.567495 16.526689 -0.232067 0.346276 -16.500814 -0.084278 0.111254 0.028195 1.718990 1.026204 0.449803 0.000000 0.000000 0.000000 0.202966 0.500104 0.002734 -0.058987 -1.074710 -0.310420 -6.095794 -18.689820 -15.242997 1.829573 18.229788 13.591615 0.000000 0.000000 0.000000 0.000000 0.000000 0.000000 1.912269 0.358341 0.475145 -2.686970 -1.279510 -0.562577 -8.979383 17.753459 -4.703095 16.160201 -2.615847 6.883618 0.000000 0.000000 0.000000 0.000000 0.000000 0.000000 0.074165 -0.433173 -16.262362 -0.253559 -0.578004 -0.111994 4.142676 2.888815 -2.964068 0.000000 0.000000 0.000000 1.081138 -0.715547 -16.224988 -2.408871 -0.176675 -0.294449 -5.035976 16.391080 1.338646 0.000000 0.000000 0.000000
-31.393712 68.322061 343.905428 1.153984 0.647794 16.600159 -0.237050 0.339050 -16.575467 -0.081149 0.113257 0.027550 1.645841 1.135347 0.502507 0.000000 0.000000 0.000000 0.361145 0.606107 0.015715 -1.111692 -1.623049 -0.098000 -1.232387 -9.495896 -17.775546 -0.577167 9.781158 17.338158 0.000000 0.000000 0.000000 0.000000 0.000000 0.000000 1.909526 0.378001 0.503964 -2.671881 -1.371515 -0.591634 -8.895688 16.743415 -4.506221 12.724364 -1.380581 5.166742 0.000000 0.000000 0.000000 0.000000 0.000000 0.000000 0.185853 -0.644779 -16.318462 -0.221023 -0.416045 -0.088833 -1.238662 10.915062 3.467390 0.000000 0.000000 0.000000 1.163810 -0.966558 -16.304493 -2.545545 -0.041413 -0.279445 -5.282307 19.359604 1.211889 0.000000 0.000000 0.000000
